#!OML:ASF H:\Terrain\Patient Classification 1\Animal2\Wednesday\Animal2.ASF
:FULLY-SPECIFIED
:DEGREES
128
root 13.1069 17.85 -22.6609 4.2257 -20.7937 0.757361
lowerback 5.30572 -3.12647 2.66122
upperback -6.05432 -3.9939 -0.207259
thorax -9.59925 -2.14787 -1.15973
lowerneck 8.04103 6.95426 13.7931
upperneck -7.69194 9.34869 -20.9026
head -1.83761 5.20054 -9.05883
rclavicle 3.57067e-014 9.24349e-015
rhumerus -11.2399 -23.4814 -31.795
rradius 31.5521
rwrist 29.94
rhand -3.39851 17.8866
rfingers 7.12502
rthumb 22.3315 -10.8429
lclavicle 3.57067e-014 9.24349e-015
lhumerus -19.3694 2.36632 29.302
lradius 31.6567
lwrist 11.4411
lhand -16.4694 23.6059
lfingers 7.12502
lthumb 9.74732 53.3604
rfemur -9.45306 -6.51173 20.0486
rtibia 24.5825
rfoot -20.2062 5.98785
rtoes 25.8607
lfemur -8.56243 -1.1243 -21.3643
ltibia 21.3857
lfoot -16.2168 6.76991
ltoes -28.1718
129
root 13.1159 17.8562 -22.662 4.46768 -20.57 0.71097
lowerback 5.00883 -3.15968 2.84386
upperback -5.99801 -4.02634 -0.167412
thorax -9.37376 -2.17371 -1.23352
lowerneck 7.73088 6.95698 13.8763
upperneck -7.76997 9.30525 -21.1652
head -1.7944 5.17347 -9.14725
rclavicle -7.55879e-014 -1.33186e-014
rhumerus -10.5577 -24.0988 -31.1364
rradius 31.7259
rwrist 30.3048
rhand -3.72325 17.9261
rfingers 7.12502
rthumb 22.0197 -10.8404
lclavicle -7.55879e-014 -1.33186e-014
lhumerus -18.7579 2.89807 28.9275
lradius 31.4063
lwrist 11.2922
lhand -17.3839 24.2392
lfingers 7.12502
lthumb 8.86491 54.033
rfemur -9.68528 -6.36698 20.13
rtibia 24.5803
rfoot -20.1604 5.58889
rtoes 25.6907
lfemur -8.86842 -1.01609 -21.3262
ltibia 21.4111
lfoot -16.2451 6.59154
ltoes -28.6856
130
root 13.1248 17.8621 -22.6637 4.76513 -20.3294 0.59363
lowerback 4.71991 -3.21609 3.10287
upperback -5.98619 -4.0849 -0.130522
thorax -9.21075 -2.21819 -1.34739
lowerneck 7.6918 6.87827 13.8913
upperneck -7.9816 9.1531 -21.3676
head -1.86309 5.10726 -9.22752
rclavicle -6.13126e-014 -2.78299e-015
rhumerus -9.91015 -24.089 -30.5
rradius 32.1674
rwrist 30.1768
rhand -4.2459 17.7604
rfingers 7.12502
rthumb 21.5178 -11.0644
lclavicle -6.13126e-014 -2.78299e-015
lhumerus -18.1078 3.11867 28.3265
lradius 31.2448
lwrist 11.2808
lhand -18.9776 25.6823
lfingers 7.12502
lthumb 7.32679 55.5354
rfemur -9.96802 -6.52535 20.2734
rtibia 24.5861
rfoot -20.1582 5.52363
rtoes 25.8282
lfemur -9.21747 -0.913023 -21.2125
ltibia 21.4302
lfoot -16.2697 6.37048
ltoes -29.5993
131
root 13.1326 17.8641 -22.6681 4.93029 -20.0513 0.689619
lowerback 4.59962 -3.31224 3.10208
upperback -6.02653 -4.21828 -0.124759
thorax -9.19091 -2.28396 -1.32859
lowerneck 7.71163 6.89832 14.0293
upperneck -8.29643 9.14868 -21.5185
head -1.94013 5.1141 -9.31513
rclavicle -9.83736e-014 -2.54444e-014
rhumerus -9.1536 -23.9984 -29.8459
rradius 32.6961
rwrist 30.117
rhand -4.80077 17.645
rfingers 7.12502
rthumb 20.9848 -11.2398
lclavicle -9.83736e-014 -2.54444e-014
lhumerus -17.6279 2.84459 27.6299
lradius 31.5206
lwrist 11.8535
lhand -20.0866 26.7705
lfingers 7.12502
lthumb 6.25621 56.6581
rfemur -10.1673 -6.51603 20.2166
rtibia 24.584
rfoot -20.3201 5.15299
rtoes 25.543
lfemur -9.54242 -0.794063 -21.3014
ltibia 21.4527
lfoot -16.1774 5.89707
ltoes -29.6134
132
root 13.1398 17.8655 -22.6738 5.01475 -19.8223 0.892488
lowerback 4.53231 -3.40108 2.9635
upperback -6.06275 -4.35129 -0.108295
thorax -9.18496 -2.33967 -1.21955
lowerneck 7.69949 6.99062 14.1436
upperneck -8.71727 9.22482 -21.6577
head -2.02798 5.16119 -9.39531
rclavicle 3.98315e-014 9.54166e-015
rhumerus -8.22272 -24.2021 -29.0485
rradius 33.0884
rwrist 30.3088
rhand -5.51801 17.7645
rfingers 7.12502
rthumb 20.2956 -11.1951
lclavicle 3.98315e-014 9.54166e-015
lhumerus -17.1682 3.11042 26.7968
lradius 31.9099
lwrist 11.6515
lhand -20.1353 26.7477
lfingers 7.12502
lthumb 6.20922 56.6367
rfemur -10.3198 -6.34733 20.0501
rtibia 24.5655
rfoot -20.4214 4.59476
rtoes 25.1938
lfemur -9.79436 -0.685884 -21.4962
ltibia 21.4929
lfoot -16.0901 5.41947
ltoes -29.0312
